<svg id="Logos" xmlns="http://www.w3.org/2000/svg" viewBox="0 0 348.15 91.9"><defs><style>.cls-1{fill:#e84b50;}.cls-2{fill:#414140;}</style></defs><path class="cls-1" d="M119.72,28.09c6.7,0,10.42,2.68,12,7.6.27.85.09,1.2-.76,1.52l-1.83.62c-.85.27-1.21.14-1.52-.71-1.12-3.36-3.44-5-7.91-5-5.32,0-8.18,2.68-8.18,7.38V49.77c0,4.65,2.9,7.38,8.18,7.38,4.56,0,6.84-1.75,8-5.1.31-.9.67-1.07,1.52-.76L131,52c.85.27,1.07.67.76,1.52-1.61,4.92-5.28,7.69-12.07,7.69-8,0-12.52-4.38-12.52-11.45V39.53C107.2,32.47,111.63,28.09,119.72,28.09Z"/><path class="cls-1" d="M144.44,36.76c6.44,0,10.06,3.26,10.06,8.58v7.29c0,5.28-3.62,8.54-10.06,8.54s-10-3.26-10-8.54V45.34C134.43,40,138.14,36.76,144.44,36.76Zm0,3.62c-3.75,0-6,1.83-6,4.92v7.33c0,3.08,2.28,4.92,6,4.92s6.08-1.84,6.08-4.92V45.3C150.52,42.21,148.24,40.38,144.44,40.38Z"/><path class="cls-1" d="M162.28,28.49v9.39a20.08,20.08,0,0,1,6.31-1.12c6.21,0,9,3.31,9,8.85v6.26c0,6-3.18,9.3-9.84,9.3A20.94,20.94,0,0,1,160,59.78c-1.43-.67-1.65-1-1.65-2.46V28.49c0-.81.26-1.07,1-1.07h1.88C162,27.42,162.28,27.68,162.28,28.49ZM168,40.43a16.51,16.51,0,0,0-5.73,1.16V55.94c0,.45.05.62.63.85a14.11,14.11,0,0,0,4.61.71c4.15,0,6.08-1.92,6.08-5.76v-6C173.6,42.35,171.76,40.43,168,40.43Z"/><path class="cls-1" d="M192.73,36.76c.81,0,1.08.27,1.08,1.07v1.52c0,.81-.27,1.08-1.08,1.08h-1.56a16.61,16.61,0,0,0-5.14.76c-.58.22-.63.49-.63.89V59.43c0,.8-.27,1.07-1.07,1.07h-1.88c-.76,0-1-.27-1-1.07V40.65a2.2,2.2,0,0,1,1.7-2.5,24.33,24.33,0,0,1,8.18-1.39Z"/><path class="cls-1" d="M204.45,36.76c6.44,0,10.06,3.26,10.06,8.58v7.29c0,5.28-3.62,8.54-10.06,8.54s-10-3.26-10-8.54V45.34C194.43,40,198.14,36.76,204.45,36.76Zm0,3.62c-3.76,0-6,1.83-6,4.92v7.33c0,3.08,2.28,4.92,6,4.92s6.08-1.84,6.08-4.92V45.3C210.53,42.21,208.25,40.38,204.45,40.38Z"/><path class="cls-2" d="M242.5,40.56V48.7c0,7.28-4.65,11.8-13,11.8h-9.75c-.84,0-1.16-.31-1.16-1.16V29.92c0-.85.32-1.16,1.16-1.16h9.75C237.85,28.76,242.5,33.27,242.5,40.56Zm-13-7.78H223V56.47h6.57c5.54,0,8.63-2.81,8.63-7.73V40.51C238.16,35.6,235.12,32.78,229.53,32.78Z"/><path class="cls-2" d="M250.86,31.13v.35c0,1.61-.49,2.15-2.15,2.15h-.27c-1.6,0-2.14-.49-2.14-2.15v-.35c0-1.61.54-2.15,2.14-2.15h.27C250.37,29,250.86,29.52,250.86,31.13Zm-.27,7.37V59.43c0,.8-.27,1.07-1.07,1.07h-1.88c-.8,0-1.07-.27-1.07-1.07V38.5c0-.8.27-1.07,1.07-1.07h1.88C250.32,37.43,250.59,37.7,250.59,38.5Z"/><path class="cls-2" d="M264.27,36.76a19.7,19.7,0,0,1,7.78,1.39c1.43.62,1.7,1,1.7,2.45v21c0,5.81-2.73,9.65-9.61,9.65-4.83,0-7.51-1.79-9-4.56-.54-.76-.41-1.29.4-1.7l1.3-.71c.85-.45,1.25-.31,1.74.4a5.65,5.65,0,0,0,5.5,3c3.89,0,5.68-2.15,5.68-5.91V59.25a20.36,20.36,0,0,1-6.26,1.11c-6.26,0-9-3.3-9-8.85V46C254.44,40,257.57,36.76,264.27,36.76Zm.27,3.67c-4.2,0-6.12,1.87-6.12,5.72v5.27c0,3.4,1.87,5.28,5.58,5.28a18.81,18.81,0,0,0,5.73-1V42c0-.54-.05-.63-.63-.89A15.07,15.07,0,0,0,264.54,40.43Z"/><path class="cls-2" d="M282.52,31.13v.35c0,1.61-.5,2.15-2.15,2.15h-.27c-1.61,0-2.15-.49-2.15-2.15v-.35c0-1.61.54-2.15,2.15-2.15h.27C282,29,282.52,29.52,282.52,31.13Zm-.27,7.37V59.43c0,.8-.27,1.07-1.08,1.07H279.3c-.81,0-1.08-.27-1.08-1.07V38.5c0-.8.27-1.07,1.08-1.07h1.87C282,37.43,282.25,37.7,282.25,38.5Z"/><path class="cls-2" d="M293.11,33.14v4.29H299c.76,0,1,.27,1,1.07v1.57c0,.8-.27,1.07-1,1.07h-5.86V51.56c0,4.87,1.43,5.81,5.77,5.81.85,0,1.12.22,1.12,1.07v1.61c0,.81-.27,1-1.12,1.07-7.11.18-9.75-2-9.75-9.47V41.14h-3.71c-.8,0-1.07-.27-1.07-1.07V38.5c0-.8.27-1.07,1.07-1.07h3.71V33.14c0-.81.23-1.07,1-1.07H292C292.84,32.07,293.11,32.33,293.11,33.14Z"/><path class="cls-2" d="M311.09,36.76c7.24,0,9.25,4,9.25,9V57.46c0,1.56-.36,2-1.61,2.55A20.28,20.28,0,0,1,311,61.17c-7.87,0-9.79-2.55-9.79-7.11,0-5.23,2.86-7,10-7a47.17,47.17,0,0,1,5.1.31V45.66c0-3.18-1.12-5.32-5.32-5.32-2.69,0-4.47.93-5.55,2.72-.49.72-.67.85-1.47.54L302.59,43c-.76-.31-1-.71-.58-1.52C303.53,38.5,306.53,36.76,311.09,36.76Zm-.32,13.55c-4.2,0-5.5,1.2-5.5,3.75,0,2.33.94,3.76,5.41,3.76a15.84,15.84,0,0,0,5-.54c.53-.22.67-.36.67-1V50.66C315.42,50.57,313,50.31,310.77,50.31Z"/><path class="cls-2" d="M327.63,60.5H325.8c-.81,0-1.08-.27-1.08-1.07V28.49c0-.81.27-1.07,1.08-1.07h1.83c.8,0,1.07.26,1.07,1.07V59.43C328.7,60.23,328.43,60.5,327.63,60.5Z"/><path class="cls-1" d="M34.38,32.57H55l3-11.94H25.42c-6,0-6,6-6,6V61.85s0,6,6,6H46.14l3-11.94H34.38a2.92,2.92,0,0,1-3-2.92V35.59A2.92,2.92,0,0,1,34.38,32.57Z"/><path class="cls-2" d="M94.85,61.85V26.64c0-5.93-6-6-6-6H68.2l-3,11.94H79.94a2.94,2.94,0,0,1,3,3V53a2.9,2.9,0,0,1-3,2.92H59.32l-3,11.94H88.88C94.85,67.82,94.85,61.85,94.85,61.85Z"/></svg>