<svg id="Capa_1" data-name="Capa 1" xmlns="http://www.w3.org/2000/svg" viewBox="0 0 733.46 137.99"><defs><style>.cls-1{fill:#3d3d3b;}.cls-2{fill:#01b8e4;}.cls-3{fill:#fff;}.cls-4{fill:none;}</style></defs><path class="cls-1" d="M425.68,64.69c0,11.74-8,21.25-21.25,21.25s-21.17-9.51-21.17-21.25,8.1-21.25,21.09-21.25S425.68,53,425.68,64.69Zm-32.33,0c0,6.2,3.72,12,11.08,12s11.08-5.79,11.08-12-4.3-12.08-11.08-12.08C397.15,52.61,393.35,58.57,393.35,64.69Z"/><path class="cls-1" d="M519.46,40c0,7.86-11.91,7.86-11.91,0S519.46,32.13,519.46,40Zm-11,15.27V79.86a5,5,0,0,0,5.05,5h0a5,5,0,0,0,5-5V55.25a5,5,0,0,0-5-5h0A5,5,0,0,0,508.46,55.25Z"/><path class="cls-1" d="M582.06,39.77c0,7.85-11.91,7.85-11.91,0S582.06,31.91,582.06,39.77Z"/><rect class="cls-1" x="571.06" y="49.99" width="10.09" height="34.7" rx="5.04"/><path class="cls-1" d="M676.94,37.9V79.68a5,5,0,0,1-5,5h0a5,5,0,0,1-5-5V37.9a5,5,0,0,1,5-5h0A5,5,0,0,1,676.94,37.9Z"/><path class="cls-2" d="M206.61,60c-5.21-.34-7.61-1.82-7.61-4.47s2.65-4,7.44-4A15.16,15.16,0,0,1,213.57,53a4.61,4.61,0,0,0,5.64-1,4.17,4.17,0,0,0-1.2-6.37,20.22,20.22,0,0,0-6.4-2.09,34.24,34.24,0,0,0-4.9-.37,15.89,15.89,0,0,1,4.9-1.66V38.38a5,5,0,1,0-10.09,0v5.17c-6.27,1.17-12.44,4.79-12.44,12.29,0,9.26,9.18,12.07,16.87,12.65,5.79.33,8.1,1.49,8.1,4.3,0,3-3.55,5-7.36,4.88a24.47,24.47,0,0,1-10.82-3.19A4.52,4.52,0,0,0,191,82.07a22.12,22.12,0,0,0,10.54,4.08,38.67,38.67,0,0,0,4.68.28,11.32,11.32,0,0,1-4.68,1.87v2.86a5,5,0,1,0,10.09,0V86c8.27-1.54,12.45-6.88,12.45-12.94C224.06,62.21,214.3,60.47,206.61,60Z"/><path class="cls-3" d="M650,46.59a9.21,9.21,0,0,1,1.4,4.63s-2.5-3.31-3.38-4.2C647.65,46.67,649.58,46,650,46.59Z"/><path class="cls-4" d="M121,46.49l.54-.5C121.31,46.15,121.13,46.32,121,46.49Z"/><path class="cls-4" d="M120.73,46.74l-.19.2Z"/><path class="cls-1" d="M136,44.12a17,17,0,0,0-5.53-.93c-3.07,0-6.18.41-8.87,2.69l-.13.11-.54.5-.23.25-.19.2a15.52,15.52,0,0,0-2.22,3.3,13.49,13.49,0,0,1,0-3.53,5,5,0,0,0-9.35,2.59V80a5,5,0,0,0,5,5h0A5,5,0,0,0,119,80V63.53c0-7.52,4.88-10.34,10.17-10.34a11.57,11.57,0,0,1,3.54.48,5.12,5.12,0,0,0,6.13-2.45A5,5,0,0,0,136,44.12Z"/><path class="cls-3" d="M120.73,46.74l.23-.25Z"/><path class="cls-3" d="M121.63,45.88l-.13.11Z"/><path class="cls-1" d="M360.4,43.68c-4.17,0-8,1-11.2,4.32a23,23,0,0,0-1.86,2.26c-.15.21-.3.44-.45.67-.38.61-.44.87-.48.87a5.3,5.3,0,0,1-.28-2c-2.5-4.62-7-6.3-11.45-6.3A12.92,12.92,0,0,0,325.53,47c-.5.59-.89,1.09-1.19,1.52-.13.21-.29.41-.41.64h0a8.11,8.11,0,0,0-.64,1.36,8.91,8.91,0,0,1,.07-3.49,5,5,0,0,0-9.52,2.2V80a5,5,0,0,0,5,5h0a5,5,0,0,0,5-5V63.2c0-5.38,3.23-10.25,8.68-10.25S341,57.82,341,63.2V80a5,5,0,0,0,5,5h0a5,5,0,0,0,5.05-5V63.2c0-5.38,3.39-10.09,8.85-10.09s7.69,4.55,7.69,9.93V80a5,5,0,0,0,5,5h0a5,5,0,0,0,5.05-5V63C377.69,50.8,372,43.68,360.4,43.68Z"/><path class="cls-4" d="M281.75,52.15c-6.7,0-12.07,4.55-12.07,12.32s5.37,12.41,12.07,12.41C297.63,76.88,297.63,52.15,281.75,52.15Z"/><path class="cls-1" d="M300,44.13h-.05a4.93,4.93,0,0,0-4.62,3.22,5.72,5.72,0,0,1,.24,3.68,19.25,19.25,0,0,0-1.67-2.78c-2.63-3.17-7.19-5.12-11.94-5.12C270,43.05,260.7,50.41,260.7,64.47c0,14.31,8.93,21.75,21,21.67,4-.07,9.28-1.83,12.13-5.44a20.53,20.53,0,0,0,1.53-2.61,10.61,10.61,0,0,1-.13,3.23A5,5,0,0,0,304.94,80V49.08A5,5,0,0,0,300,44.13ZM281.75,76.88c-6.7,0-12.07-4.63-12.07-12.41s5.37-12.32,12.07-12.32C297.63,52.15,297.63,76.88,281.75,76.88Z"/><path class="cls-1" d="M655.26,44.13h0a5,5,0,0,0-4.62,3.22,5.72,5.72,0,0,1,.24,3.68,19.25,19.25,0,0,0-1.67-2.78c-2.63-3.17-7.19-5.12-11.94-5.12C625.31,43.05,616,50.41,616,64.47c0,14.31,8.93,21.75,21,21.67,3.95-.07,9.27-1.83,12.12-5.44a21.4,21.4,0,0,0,1.54-2.61,11.18,11.18,0,0,1-.14,3.23A5,5,0,0,0,660.21,80V49.08A5,5,0,0,0,655.26,44.13ZM637,76.88c-6.7,0-12.08-4.63-12.08-12.41S630.33,52.15,637,52.15C652.9,52.15,652.9,76.88,637,76.88Z"/><path class="cls-1" d="M556.73,79.31c6.7-3.06,8.6-10.17,8.6-15.22,0-4.3-.82-7.88-3.7-11.34l-1.92.56c.36-.36,1.38-1.42,1.72-1.8L562.64,50a4.67,4.67,0,0,0-7.34-5.78l-1.22,1.54c-2.81-1.9-6.12-2.31-9.34-2.31-12.29,0-22.09,9.21-20.51,23.7,1.12,10.25,10.14,17.52,20.45,17.48,5.07,0,10.4,2.55,10.4,8.19s-4.55,8.77-10.34,8.77c-4.63,0-8.68-2.23-10.11-5.82a4.9,4.9,0,0,0-4.58-2.95h0a5,5,0,0,0-4.64,7c2.9,7,10.23,11.22,19.33,11.22,11.83,0,20.43-6.94,20.43-18.19C565.17,87.58,563.51,82.7,556.73,79.31Zm-12-4.72c-5.87,0-10.67-4.22-10.67-11.33s4.8-11.49,10.67-11.49,10.59,4.46,10.59,11.49S550.53,74.59,544.74,74.59Z"/><path class="cls-1" d="M256.23,79.42l-.14-.43a4.25,4.25,0,0,0-4.77-2.81,8.42,8.42,0,0,1-1.39.12c-3.15,0-5.3-1.9-5.3-5.79V52.89h7a4.34,4.34,0,1,0,0-8.68H240.7a14.32,14.32,0,0,1,4-1.84V38.16a5,5,0,0,0-5.05-5h0a5,5,0,0,0-5,5v6.05h-3.27a4.34,4.34,0,0,0,0,8.68h3.27V70.51c0,10.17,5.79,15.22,14.64,14.89a25.54,25.54,0,0,0,3.62-.35A4.34,4.34,0,0,0,256.23,79.42Z"/><path class="cls-1" d="M613.76,79.31l-.14-.43a4.23,4.23,0,0,0-4.77-2.81,9.51,9.51,0,0,1-1.39.11c-3.15,0-5.3-1.9-5.3-5.79V52.78h7a4.34,4.34,0,1,0,0-8.68H598.23a13.75,13.75,0,0,1,4-1.84V38.05a5,5,0,0,0-5-5h0a5,5,0,0,0-5,5V44.1h-3.27a4.34,4.34,0,0,0,0,8.68h3.27V70.39c0,10.18,5.79,15.22,14.64,14.89a22.91,22.91,0,0,0,3.62-.35A4.33,4.33,0,0,0,613.76,79.31Z"/><path class="cls-4" d="M83.81,37.48H67.44V58H83.81C97.79,58,97.71,37.48,83.81,37.48Z"/><path class="cls-1" d="M83.81,27.06c-7.25,0-14.51.05-21.76.07a5.54,5.54,0,0,0-5.53,5.54V79.58A5.45,5.45,0,0,0,62,85h0a5.46,5.46,0,0,0,5.46-5.45V69.91A16.64,16.64,0,0,1,64.07,68H83.81C112.18,68,112.1,27.06,83.81,27.06Zm0,30.93H67.44V37.48H83.81C97.71,37.48,97.79,58,83.81,58Z"/><path class="cls-4" d="M162.9,51.79c-5.46,0-9.92,2.64-11.41,7.94h22C172.83,54.43,168.69,51.79,162.9,51.79Z"/><path class="cls-1" d="M163.32,39.23a4.22,4.22,0,0,0,3.32-1.62l2.64-3.41A4.2,4.2,0,0,0,166,27.43h-.86a4.21,4.21,0,0,0-3.73,2.26L159.6,33.1A4.19,4.19,0,0,0,163.32,39.23Z"/><path class="cls-1" d="M473.94,27h-17.2a5.54,5.54,0,0,0-5.54,5.54V79.36a5.54,5.54,0,0,0,5.54,5.54h17.2c20.26,0,29.2-14.8,28.95-29.44C502.64,41.15,493.79,27,473.94,27Zm0,47.39H462V39.09a17,17,0,0,1-2.8-1.74h14.71c12.57,0,17.87,9,18.11,18C492.3,64.8,487.09,74.4,473.94,74.4Z"/><path class="cls-4" d="M162.9,51.79c-5.46,0-9.92,2.64-11.41,7.94h22C172.83,54.43,168.69,51.79,162.9,51.79Z"/><path class="cls-1" d="M155,68.08h22.72a5.52,5.52,0,0,0,5.54-5.76c-.71-13-8.74-19.46-20.73-19.46-13.23,0-21.67,8.93-21.67,21.33a27.59,27.59,0,0,0,.29,3.92c1.53,10.85,9.53,17.83,22.12,17.83a27.7,27.7,0,0,0,12.87-3.13,4.57,4.57,0,0,0-4.31-8,19.37,19.37,0,0,1-8.39,2c-6.5,0-10.71-3-11.89-7.41a11.24,11.24,0,0,1-2.31-1.27Zm7.86-16.29c5.79,0,9.93,2.64,10.59,7.94h-22C153,54.43,157.44,51.79,162.9,51.79Z"/></svg>