<svg id="Capa_1" data-name="Capa 1" xmlns="http://www.w3.org/2000/svg" viewBox="0 0 179 48.26"><defs><style>.cls-1{fill:#050305;}</style></defs><rect class="cls-1" x="111.1" y="25.23" width="5.38" height="1.73"/><rect class="cls-1" x="111.1" y="20.93" width="5.38" height="1.73"/><polygon class="cls-1" points="45.54 21.07 45.54 22.8 42.02 22.8 42.02 25.15 45.23 25.15 45.23 26.88 42.02 26.88 42.02 29.68 45.64 29.68 45.64 31.41 40.27 31.41 40.27 21.07 45.54 21.07"/><polygon class="cls-1" points="52.17 21.07 52.17 29.68 56.14 29.68 56.14 31.41 50.4 31.41 50.4 21.07 52.17 21.07"/><rect class="cls-1" x="111.1" y="29.54" width="5.38" height="1.73"/><polygon class="cls-1" points="66.04 20.93 72.14 20.93 72.14 22.66 69.99 22.66 69.99 31.27 68.18 31.27 68.18 22.66 66.04 22.66 66.04 20.93"/><polygon class="cls-1" points="82.01 20.93 82.01 22.66 78.5 22.66 78.5 25 81.7 25 81.7 26.73 78.5 26.73 78.5 29.54 82.11 29.54 82.11 31.27 76.74 31.27 76.74 20.93 82.01 20.93"/><path class="cls-1" d="M90.46,27.75h-.89v3.51H87.8V20.93h3.06a2.48,2.48,0,0,1,2.49,2.49v1.85a2.54,2.54,0,0,1-1.15,2.11l1.62,3.88H91.88Zm1.09-4.4a.7.7,0,0,0-.72-.69H89.57V26h1.26a.7.7,0,0,0,.72-.69Z"/><path class="cls-1" d="M105,28.52a2.86,2.86,0,0,1-2.87,2.89h-.06a2.93,2.93,0,0,1-2.91-2.91V23.67a2.92,2.92,0,0,1,2.91-2.89h.06A2.86,2.86,0,0,1,105,23.84h-1.78a1.2,1.2,0,0,0-1.1-1.33A1.09,1.09,0,0,0,101,23.59v5a1.1,1.1,0,0,0,1.14,1.09,1.08,1.08,0,0,0,1.1-1.07V28H105Z"/><path class="cls-1" d="M125.11,27.75h-.88v3.51h-1.78V20.93h3.06a2.49,2.49,0,0,1,2.5,2.49v1.85a2.52,2.52,0,0,1-1.16,2.11l1.63,3.88h-1.95Zm1.09-4.4a.7.7,0,0,0-.72-.69h-1.25V26h1.25a.7.7,0,0,0,.72-.69Z"/><path class="cls-1" d="M146.12,28.52a2.88,2.88,0,0,1-2.87,2.89H143a2.91,2.91,0,0,1-2.88-2.91V23.67A2.89,2.89,0,0,1,143,20.78h.23a2.88,2.88,0,0,1,2.87,2.89Zm-1.76-4.93a1.11,1.11,0,0,0-1.14-1.08h-.16a1.12,1.12,0,0,0-1.15,1.08v5a1.13,1.13,0,0,0,1.15,1.1h.15a1.12,1.12,0,0,0,1.15-1.08Z"/><path class="cls-1" d="M152.37,20.91h5.38v7.64a2.9,2.9,0,0,1-2.87,2.85h-.19a2.84,2.84,0,0,1-2.83-2.85v-.8h1.78v.81a1.16,1.16,0,1,0,2.32,0v-6h-3.59Z"/><path class="cls-1" d="M169.47,28.52a2.88,2.88,0,0,1-2.87,2.89h-.23a2.91,2.91,0,0,1-2.88-2.91V23.67a2.89,2.89,0,0,1,2.88-2.89h.23a2.88,2.88,0,0,1,2.87,2.89Zm-1.76-4.93a1.11,1.11,0,0,0-1.14-1.08h-.16a1.12,1.12,0,0,0-1.15,1.08v5a1.13,1.13,0,0,0,1.15,1.1h.15a1.12,1.12,0,0,0,1.15-1.08Z"/><path class="cls-1" d="M27,28.21l-2.78-8.14a2.63,2.63,0,0,0-.29-.61L20.55,14.3a2.44,2.44,0,0,0-2-1.11H15.14a2.45,2.45,0,0,0-2,1.1L9.7,19.42a2.29,2.29,0,0,0-.3.63L6.64,28.22a2.43,2.43,0,0,0,.08,1.66L8.63,35a2.35,2.35,0,0,0,1,1.18l3.71,2.33a2.49,2.49,0,0,0,1.21.35h4.48a2.49,2.49,0,0,0,1.21-.35L24,36.22A2.39,2.39,0,0,0,25,35l1.91-5.13A2.49,2.49,0,0,0,27,28.21Zm-3.72-6.58,1.38,4.06-.06.06L21.83,23a.19.19,0,0,1,0-.26L23,21.56A.19.19,0,0,1,23.29,21.63Zm-7.55,4.72a.24.24,0,0,1,0,.32l-2.58,2.58a.22.22,0,0,1-.32,0l-2.57-2.57a.22.22,0,0,1,0-.32l2.62-2.54a.23.23,0,0,1,.32,0Zm-1.62-3.62a.28.28,0,0,1,.07-.17l2.47-2.38a.22.22,0,0,1,.32,0l2.46,2.46h0a.26.26,0,0,1,.07.17.26.26,0,0,1-.07.16L17,25.39a.23.23,0,0,1-.17.07.21.21,0,0,1-.16-.07l-2.5-2.5A.24.24,0,0,1,14.12,22.73Zm0,7.47,2.58-2.57a.2.2,0,0,1,.16-.07h0a.23.23,0,0,1,.17.07l2.57,2.57a.24.24,0,0,1,0,.33L17,33.1a.22.22,0,0,1-.32,0l-2.58-2.57A.26.26,0,0,1,14.11,30.2ZM18,26.67a.22.22,0,0,1,0-.32l2.43-2.43a.22.22,0,0,1,.32,0L23.3,26.5a.24.24,0,0,1,0,.32l-2.43,2.43a.22.22,0,0,1-.32,0Zm2.34-9.9a.19.19,0,0,1,.16.1l1.9,2.91a.23.23,0,0,1,0,.29l-1.62,1.62a.22.22,0,0,1-.32,0L18,19.25a.22.22,0,0,1-.07-.17.2.2,0,0,1,.07-.16l2.16-2.09A.22.22,0,0,1,20.31,16.77Zm-6.09-1.5.23-.36a.83.83,0,0,1,.63-.41h3.49a.83.83,0,0,1,.63.41l.27.41a.23.23,0,0,1,0,.29l-2.36,2.3a.35.35,0,0,1-.23.09.34.34,0,0,1-.23-.1l-2.36-2.35A.21.21,0,0,1,14.22,15.27Zm-2.93,4.47,1.92-2.93a.25.25,0,0,1,.17-.11.26.26,0,0,1,.19.07L15.7,18.9a.26.26,0,0,1,.07.17.24.24,0,0,1-.07.16l-2.47,2.38a.22.22,0,0,1-.32,0L11.32,20A.24.24,0,0,1,11.29,19.74Zm-.95,1.89a.19.19,0,0,1,.31-.07l1.15,1.15a.19.19,0,0,1,0,.26L9,25.75,9,25.69ZM9.57,32.79a.23.23,0,0,1-.16.06H9.36a.21.21,0,0,1-.16-.14L8,29.48A.72.72,0,0,1,8,29l0-.15a.21.21,0,0,1,.06-.1c.16-.13.75-.71,1-1a.25.25,0,0,1,.33,0l2.42,2.42a.21.21,0,0,1,.07.16.22.22,0,0,1-.07.17Zm4,3.83-.08.1a.21.21,0,0,1-.19.1.27.27,0,0,1-.12,0l-2.73-1.66a.81.81,0,0,1-.31-.35l-.1-.26a.23.23,0,0,1,.09-.26l.06-.06L13,31.44a.22.22,0,0,1,.32,0L15.88,34a.22.22,0,0,1,0,.32Zm5.31.81a.23.23,0,0,1-.21.15H15a.24.24,0,0,1-.22-.15.26.26,0,0,1,.05-.25l1.85-1.84a.2.2,0,0,1,.16-.07h0a.2.2,0,0,1,.16.07l1.85,1.84A.22.22,0,0,1,18.91,37.43Zm4.86-2.87-.09.26a.75.75,0,0,1-.32.34l-.05,0-2.67,1.63a.27.27,0,0,1-.12,0,.21.21,0,0,1-.19-.1.43.43,0,0,0-.09-.1L18,34.38a.22.22,0,0,1,0-.32l2.58-2.58a.23.23,0,0,1,.32,0l2.76,2.76.06,0A.22.22,0,0,1,23.77,34.56Zm1.89-5.08-1.2,3.23a.23.23,0,0,1-.16.14h-.05a.23.23,0,0,1-.16-.06l-2.27-2.26a.26.26,0,0,1,0-.33l2.43-2.42a.23.23,0,0,1,.32,0c.25.25.85.83,1,1a.23.23,0,0,1,.07.1l.05.14A.75.75,0,0,1,25.66,29.48Z"/></svg>