<svg id="Capa_1" data-name="Capa 1" xmlns="http://www.w3.org/2000/svg" viewBox="0 0 241.88 98.89"><defs><style>.cls-1{fill:#fff;}</style></defs><path class="cls-1" d="M97.23,62.29v.86h-4v-.86Z"/><path class="cls-1" d="M101.35,65.55V58h.85v7.56Z"/><path class="cls-1" d="M108.92,65.55h-.83V62.78c0-1.2-.59-1.72-1.49-1.72A1.69,1.69,0,0,0,105,62.87v2.68h-.83V60.44H105v.75a2.09,2.09,0,0,1,1.75-.92,2.18,2.18,0,0,1,1.59.6,2.47,2.47,0,0,1,.63,1.88Z"/><path class="cls-1" d="M111.64,60.44h2.91v5.11h-.85V61.19h-2.06v4.36h-.86V61.19H110v-.75h.74v-1a1.48,1.48,0,0,1,1.53-1.64,1.89,1.89,0,0,1,.51.07l-.17.79a1.11,1.11,0,0,0-.29,0c-.47,0-.72.31-.72.88Zm2.52-1.28a.67.67,0,1,1,.65-.65A.68.68,0,0,1,114.16,59.16Z"/><path class="cls-1" d="M121,65.55h-.83V62.78c0-1.2-.6-1.72-1.49-1.72A1.68,1.68,0,0,0,117,62.87v2.68h-.83V60.44H117v.75a2.08,2.08,0,0,1,1.74-.92,2.2,2.2,0,0,1,1.6.6,2.47,2.47,0,0,1,.63,1.88Z"/><path class="cls-1" d="M123.2,57.93a.7.7,0,0,1,.67.69.68.68,0,1,1-.67-.69Zm.4,2.51v5.11h-.86V60.44Z"/><path class="cls-1" d="M126.64,61.19v3c0,.42.15.56.46.56h.63v.79h-.91c-.69,0-1-.41-1-1.23V61.19h-.93v-.75h.93V58.82h.85v1.62h1.09v.75Z"/><path class="cls-1" d="M133.31,65.57h-.84V65a2,2,0,0,1-1.58.74,2.07,2.07,0,0,1-1.37-.45,1.64,1.64,0,0,1,.13-2.54,2.29,2.29,0,0,1,1.45-.34h1c.26,0,.39-.13.39-.37-.05-.63-.53-.94-1.21-.94a1.58,1.58,0,0,0-1.48.82l-.66-.35a2.33,2.33,0,0,1,2.2-1.25,1.83,1.83,0,0,1,2,1.87Zm-.84-2.52-1.36,0c-.84,0-1.34.34-1.34.94a1,1,0,0,0,1.13.95,1.5,1.5,0,0,0,1.57-1.62Z"/><path class="cls-1" d="M137.56,61.74a1,1,0,0,0-1.1-.72c-.58,0-1,.3-1,.81,0,.35.2.57.62.67l.26.06.72.15a1.41,1.41,0,0,1,1.26,1.47,1.34,1.34,0,0,1-.51,1.09,1.94,1.94,0,0,1-1.3.43,1.86,1.86,0,0,1-2-1.32l.79-.16c.09.44.54.74,1.22.74s1-.3,1-.77-.21-.61-.71-.7l-.74-.16-.22-.06a1.42,1.42,0,0,1-1.19-1.41,1.71,1.71,0,0,1,1.78-1.59,1.89,1.89,0,0,1,2,1.29Z"/><path class="cls-1" d="M147.58,60.28a2.21,2.21,0,0,1-2.33,2.33H143.3v2.94h-.85V58h2.72a2.17,2.17,0,0,1,2.41,2.28Zm-2.47-1.46H143.3v3h1.83a1.43,1.43,0,0,0,1.58-1.48A1.39,1.39,0,0,0,145.11,58.82Z"/><path class="cls-1" d="M148,63a2.56,2.56,0,1,1,5.11,0,2.59,2.59,0,0,1-2.56,2.71A2.64,2.64,0,0,1,148,63Zm.83,0a1.78,1.78,0,0,0,1.72,1.9A1.73,1.73,0,0,0,152.3,63a2,2,0,0,0-.48-1.37,1.59,1.59,0,0,0-1.24-.53A1.76,1.76,0,0,0,148.86,63Z"/><path class="cls-1" d="M157.17,61.74a1,1,0,0,0-1.1-.72c-.58,0-1,.3-1,.81,0,.35.2.57.62.67l.27.06.71.15a1.41,1.41,0,0,1,1.26,1.47,1.34,1.34,0,0,1-.51,1.09,1.92,1.92,0,0,1-1.29.43,1.86,1.86,0,0,1-2-1.32l.79-.16c.1.44.54.74,1.23.74s1-.3,1-.77-.22-.61-.72-.7l-.74-.16-.22-.06a1.42,1.42,0,0,1-1.19-1.41A1.71,1.71,0,0,1,156,60.27,1.88,1.88,0,0,1,158,61.56Z"/><path class="cls-1" d="M159.9,57.93a.7.7,0,0,1,.67.69.68.68,0,1,1-.67-.69Zm.4,2.51v5.11h-.85V60.44Z"/><path class="cls-1" d="M164.82,65.72a2.34,2.34,0,0,1-1.78-.84v.67h-.86V58H163v3.18a2.2,2.2,0,0,1,1.79-.9,2.74,2.74,0,0,1,0,5.45ZM164.75,61a1.78,1.78,0,0,0-1.69,2,1.71,1.71,0,0,0,1.64,1.91,2,2,0,0,0,.05-3.9Z"/><path class="cls-1" d="M169.15,57.93a.7.7,0,0,1,.67.69.68.68,0,1,1-.67-.69Zm.39,2.51v5.11h-.85V60.44Z"/><path class="cls-1" d="M172.47,65.55c-.71,0-1-.41-1-1.23V58h.85v6.2c0,.42.15.56.46.56h.62v.79Z"/><path class="cls-1" d="M175.32,57.93a.7.7,0,0,1,.67.69.68.68,0,1,1-.67-.69Zm.4,2.51v5.11h-.85V60.44Z"/><path class="cls-1" d="M182.26,58v7.56h-.86v-.7a2.27,2.27,0,0,1-1.82.89,2.75,2.75,0,0,1,.12-5.47,2.21,2.21,0,0,1,1.7.78V58Zm-2.5,3A1.8,1.8,0,0,0,178,62.92a1.7,1.7,0,1,0,3.34.06C181.38,61.74,180.66,61,179.76,61Z"/><path class="cls-1" d="M188.07,65.57h-.84V65a2,2,0,0,1-1.59.74,2.06,2.06,0,0,1-1.36-.45,1.64,1.64,0,0,1,.13-2.54,2.29,2.29,0,0,1,1.45-.34h1c.26,0,.39-.13.39-.37,0-.63-.53-.94-1.21-.94a1.58,1.58,0,0,0-1.48.82l-.66-.35a2.33,2.33,0,0,1,2.2-1.25,1.83,1.83,0,0,1,2,1.87Zm-.84-2.52-1.36,0c-.84,0-1.34.34-1.34.94a1,1,0,0,0,1.13.95,1.5,1.5,0,0,0,1.57-1.62Z"/><path class="cls-1" d="M194.36,58v7.56h-.86v-.7a2.27,2.27,0,0,1-1.82.89,2.75,2.75,0,0,1,.12-5.47,2.21,2.21,0,0,1,1.7.78V58Zm-2.5,3a1.8,1.8,0,0,0-1.72,1.88,1.7,1.7,0,1,0,3.34.06C193.48,61.74,192.75,61,191.86,61Z"/><path class="cls-1" d="M200.81,63.36h-4.23a1.91,1.91,0,0,0,.6,1.1,1.64,1.64,0,0,0,1.12.42,1.58,1.58,0,0,0,1.51-.9l.74.28a2.37,2.37,0,0,1-2.25,1.43,2.71,2.71,0,0,1,0-5.42,2.42,2.42,0,0,1,2.31,1.56,3.37,3.37,0,0,1,.21,1.19Zm-.8-.68a2.15,2.15,0,0,0-.26-.76,1.65,1.65,0,0,0-2.59-.39,1.91,1.91,0,0,0-.59,1.15Z"/><path class="cls-1" d="M204.84,61.74a1,1,0,0,0-1.09-.72c-.59,0-1,.3-1,.81,0,.35.21.57.62.67l.27.06.71.15a1.42,1.42,0,0,1,1.27,1.47,1.34,1.34,0,0,1-.51,1.09,1.94,1.94,0,0,1-1.3.43,1.85,1.85,0,0,1-2-1.32l.78-.16c.1.44.55.74,1.23.74s1-.3,1-.77-.21-.61-.72-.7l-.74-.16-.21-.06a1.42,1.42,0,0,1-1.2-1.41,1.71,1.71,0,0,1,1.78-1.59,1.88,1.88,0,0,1,1.95,1.29Z"/><path class="cls-1" d="M213.28,62.29v.86h-4v-.86Z"/><path class="cls-1" d="M87,41.39c0-4.68,3.41-8.34,7.76-8.34A7.28,7.28,0,0,1,102,38.37H98.76a4.37,4.37,0,0,0-4-2.53c-2.64,0-4.72,2.53-4.72,5.55S92.13,47,94.77,47a4.5,4.5,0,0,0,4.38-3.57h-4V40.56h7.3c.18,5.62-3.16,9.16-7.72,9.16C90.42,49.72,87,46.06,87,41.39Z"/><path class="cls-1" d="M110.83,40.21c-1.94-.34-3.23.69-3.23,2.37v6.87h-3V42.58c0-3.36,2.33-5.71,6.27-5.22Z"/><path class="cls-1" d="M118.1,49.72a4.94,4.94,0,0,1-5.27-5.29V37.59h3v6.93a2.07,2.07,0,0,0,2.23,2.26,2.21,2.21,0,0,0,2.31-2.26V37.59h3v6.84A5.1,5.1,0,0,1,118.1,49.72Z"/><path class="cls-1" d="M132.22,49.7a4.65,4.65,0,0,1-3.45-1.38v6.4H125.7V43.48a6.1,6.1,0,1,1,6.52,6.22Zm-.41-9.56a3.2,3.2,0,0,0-3,3.34,3.06,3.06,0,1,0,6.08,0A3.16,3.16,0,0,0,131.81,40.14Z"/><path class="cls-1" d="M151.22,43.53a6,6,0,1,1-6-6.24A6,6,0,0,1,151.22,43.53Zm-3.06,0c0-2-1.31-3.48-2.93-3.48s-2.92,1.43-2.92,3.48a3,3,0,1,0,5.85,0Z"/><path class="cls-1" d="M153.78,33.46h5c4.42,0,7.23,3,7.23,8s-2.81,8-7.23,8h-5Zm1.93,1.87V47.56h3.09c2.95,0,5.23-1.84,5.23-6.13s-2.33-6.1-5.23-6.1Z"/><path class="cls-1" d="M168.63,35.79V34.32a1,1,0,0,1,2,0v1.47Zm2,13.66h-2V37.59h2Z"/><path class="cls-1" d="M185,48.89c0,3.8-2.44,6.38-6.11,6.38-2.78,0-5-1.49-5.59-3.91h2.07a3.74,3.74,0,0,0,3.52,2c3.07,0,4.17-2.35,4.17-4.5V47.77a5,5,0,0,1-4,2,6.24,6.24,0,0,1,0-12.46A6,6,0,0,1,185,43.53Zm-5.95-9.81a4.22,4.22,0,0,0-4,4.45,4.18,4.18,0,0,0,4,4.4,4.45,4.45,0,0,0,0-8.85Z"/><path class="cls-1" d="M187.7,35.79V34.32a1,1,0,0,1,2,0v1.47Zm2,13.66h-2V37.59h2Z"/><path class="cls-1" d="M197.44,49.45c-2.76.32-4.67-1.32-4.67-4.33V35.05h1.93v2.54h2.7v1.86h-2.7v5.67c0,2.09,1.27,2.62,2.74,2.53Z"/><path class="cls-1" d="M210.69,49.45H208.8V47.6a5.06,5.06,0,0,1-4.1,2.15,6.24,6.24,0,0,1,.05-12.46,6,6,0,0,1,5.94,6.24Zm-5.94-10.37a4.22,4.22,0,0,0-4,4.45,4.18,4.18,0,0,0,4,4.4,4.45,4.45,0,0,0,0-8.85Z"/><path class="cls-1" d="M213.38,32.31h1.94V45.05c0,2.09,1.29,2.62,2.76,2.55v1.85c-2.79.32-4.7-1.32-4.7-4.33Z"/><path class="cls-1" d="M25,48.1c1.92,4.06,6.11,8.28,13.17,13.28l.78.54a37.87,37.87,0,0,0,7.3-6.79A43.86,43.86,0,0,1,32.15,42.72C28.6,37.87,28.59,33.9,29,31.82a20,20,0,0,0-2.14,2.66C23.51,39.33,22.94,43.66,25,48.1Z"/><path class="cls-1" d="M26.83,64.06c2.27,2.07,6.59,1.88,9.43-.36a64.47,64.47,0,0,1-9.5-8.28,8.77,8.77,0,0,0-1.5,4.72A5.18,5.18,0,0,0,26.83,64.06Z"/><path class="cls-1" d="M46.23,71.69c4.07-1.93,8.29-6.11,13.28-13.18l.55-.78a38,38,0,0,0-6.8-7.29A43.86,43.86,0,0,1,40.85,64.58C36,68.13,32,68.14,30,67.76a20,20,0,0,0,2.66,2.14C37.46,73.22,41.79,73.79,46.23,71.69Z"/><path class="cls-1" d="M62.19,69.9c2.08-2.27,1.88-6.59-.36-9.43A64.47,64.47,0,0,1,53.55,70a8.86,8.86,0,0,0,4.73,1.5A5.18,5.18,0,0,0,62.19,69.9Z"/><path class="cls-1" d="M70.42,50.75c-1.92-4.07-6.11-8.29-13.17-13.28l-.78-.55a38.17,38.17,0,0,0-7.3,6.8A43.86,43.86,0,0,1,63.31,56.13C66.86,61,66.87,64.94,66.49,67a19.25,19.25,0,0,0,2.14-2.66C72,59.52,72.52,55.19,70.42,50.75Z"/><path class="cls-1" d="M68.63,34.79c-2.27-2.08-6.59-1.88-9.43.36a63.93,63.93,0,0,1,9.5,8.28,8.77,8.77,0,0,0,1.5-4.73A5.18,5.18,0,0,0,68.63,34.79Z"/><path class="cls-1" d="M48.87,27.21c-4.06,1.92-8.28,6.1-13.28,13.17l-.54.78a38.18,38.18,0,0,0,6.79,7.3A43.66,43.66,0,0,1,54.26,34.32c4.84-3.56,8.81-3.56,10.9-3.18A20.85,20.85,0,0,0,62.49,29C57.65,25.67,53.32,25.1,48.87,27.21Z"/><path class="cls-1" d="M32.91,29c-2.07,2.28-1.88,6.6.37,9.44a62.23,62.23,0,0,1,8.28-9.5,8.82,8.82,0,0,0-4.73-1.5A5.23,5.23,0,0,0,32.91,29Z"/></svg>