<svg id="Capa_1" data-name="Capa 1" xmlns="http://www.w3.org/2000/svg" viewBox="0 0 192.76 83.19"><defs><style>.cls-1{fill:#1e84c6;}.cls-2{fill:#193762;}.cls-3{fill:#2a3546;}</style></defs><path class="cls-1" d="M45.39,26,30.49,57.1a.24.24,0,0,0,.21.34H50.3a.24.24,0,0,0,.22-.33l-1.64-3.86a.23.23,0,0,0-.21-.14l-10.81,0a.24.24,0,0,1-.21-.34l8-16.1a.23.23,0,0,1,.42,0L56,57.31a.23.23,0,0,0,.21.13h4.62a.24.24,0,0,0,.21-.34L45.81,26A.23.23,0,0,0,45.39,26Z"/><path class="cls-2" d="M92.91,40l-.74-1.81H88.76L88,40H86.22l3.45-8.12h1.64L94.76,40Zm-2.44-6L89.4,36.59h2.14Z"/><path class="cls-2" d="M100.49,40.08a5.09,5.09,0,0,1-3.42-1.29l1-1.25a3.71,3.71,0,0,0,2.41,1c.73,0,1.17-.29,1.17-.76v0c0-.45-.28-.68-1.63-1-1.62-.42-2.67-.87-2.67-2.47v0a2.52,2.52,0,0,1,2.82-2.43,4.71,4.71,0,0,1,3,1l-.92,1.34a3.76,3.76,0,0,0-2.1-.79c-.68,0-1,.31-1,.7v0c0,.53.35.7,1.74,1.06,1.64.43,2.56,1,2.56,2.42v0C103.45,39.18,102.23,40.08,100.49,40.08Z"/><path class="cls-2" d="M106.72,40V31.9h6.08v1.58h-4.32v1.64h3.8V36.7h-3.8v1.69h4.38V40Z"/><path class="cls-2" d="M119,40.08a5.1,5.1,0,0,1-3.42-1.29l1-1.25a3.67,3.67,0,0,0,2.41,1c.72,0,1.16-.29,1.16-.76v0c0-.45-.28-.68-1.62-1-1.63-.42-2.68-.87-2.68-2.47v0a2.53,2.53,0,0,1,2.82-2.43,4.71,4.71,0,0,1,3,1l-.92,1.34a3.76,3.76,0,0,0-2.1-.79c-.68,0-1,.31-1,.7v0c0,.53.34.7,1.73,1.06,1.64.43,2.56,1,2.56,2.42v0C122,39.18,120.77,40.08,119,40.08Z"/><path class="cls-2" d="M129.18,40.11A4.14,4.14,0,0,1,124.9,36v0a4.29,4.29,0,0,1,8.58,0v0A4.17,4.17,0,0,1,129.18,40.11Zm2.44-4.17a2.45,2.45,0,0,0-2.44-2.54,2.41,2.41,0,0,0-2.42,2.51v0a2.44,2.44,0,0,0,2.44,2.53A2.41,2.41,0,0,0,131.62,36Z"/><path class="cls-2" d="M141.68,40,140,37.39h-1.4V40h-1.77V31.9h3.69c1.9,0,3,1,3,2.66v0a2.51,2.51,0,0,1-1.73,2.5l2,2.88Zm0-5.31c0-.76-.53-1.16-1.39-1.16h-1.77v2.32h1.8c.86,0,1.36-.46,1.36-1.14Z"/><path class="cls-2" d="M146.92,40V31.9h1.77V40Zm.14-8.7,1.31-2,1.51.66-1.48,1.38Z"/><path class="cls-2" d="M158.43,40l-.73-1.81h-3.41L153.55,40h-1.81l3.46-8.12h1.63L160.29,40ZM156,34l-1.07,2.61h2.14Z"/><path class="cls-3" d="M87,45.64H89.4a3.32,3.32,0,0,1,3.41,3.61A3.41,3.41,0,0,1,89.39,53H87Zm.56,6.81h1.78c1.94,0,2.89-1.36,2.89-3.17a2.81,2.81,0,0,0-2.89-3.12H87.53Z"/><path class="cls-3" d="M96.56,45.64V53H96V45.64Z"/><path class="cls-3" d="M105.85,53h-.48a5.85,5.85,0,0,1-.07-1.18,2.37,2.37,0,0,1-2.37,1.26c-2.11,0-3.19-1.6-3.19-3.69s1.16-3.83,3.31-3.83a2.62,2.62,0,0,1,2.86,2.18h-.57A2.18,2.18,0,0,0,103,46.06c-1.84,0-2.68,1.42-2.68,3.28,0,1.68.81,3.2,2.6,3.2s2.35-1.2,2.35-2.82v-.09h-2.37v-.52h2.92Z"/><path class="cls-3" d="M109.88,45.64V53h-.57V45.64Z"/><path class="cls-3" d="M115.08,46.16h-2.47v-.52h5.52v.52h-2.48V53h-.57Z"/><path class="cls-3" d="M120.72,50.44,119.78,53h-.57l2.69-7.34h.67L125.38,53h-.62l-1-2.54Zm2.9-.52c-.82-2.18-1.24-3.23-1.38-3.72h0c-.18.55-.65,1.85-1.31,3.72Z"/><path class="cls-3" d="M128.25,45.64h.57v6.81h3.94l-.1.53h-4.41Z"/><path class="cls-2" d="M57,25.75H49.75l2.52,5H57a11.88,11.88,0,0,1,6.37,21.91l2.26,4.47A16.87,16.87,0,0,0,57,25.75Z"/></svg>