<svg id="Capa_1" data-name="Capa 1" xmlns="http://www.w3.org/2000/svg" viewBox="0 0 337.89 148.63"><defs><style>.cls-1{fill:#0767f9;}.cls-2{fill:#3456a2;}.cls-3{fill:#00c759;}.cls-4{fill:#2c2a68;}.cls-5{fill:#4d4c4c;}.cls-6{fill:#282b62;}</style></defs><path class="cls-1" d="M85.48,62.35a2.94,2.94,0,0,1,2.07-.83,2,2,0,0,1,1.3,3,9.9,9.9,0,0,1-1.57,1.23C82.16,69.21,77,72.59,72,76.23a91.82,91.82,0,0,0-8.8,6.9A27.41,27.41,0,0,0,59,87.62a7.61,7.61,0,0,0-1.83,4.85,3.5,3.5,0,0,0,.56,1.42c0,.15,0,.44,0,.59a10.9,10.9,0,0,1-2.26-1.92,1.3,1.3,0,0,1-.18-.23,10,10,0,0,1-.7-1.39,1.37,1.37,0,0,1-.1-.48,6.58,6.58,0,0,1,.45-3.08c1.16-2.56,3.22-4.53,5.2-6.47,5.68-5.17,12.13-9.38,18.38-13.82Q82,64.77,85.48,62.35Z"/><path class="cls-2" d="M77.12,75.57a1.78,1.78,0,0,1,2.49,1.73,1.52,1.52,0,0,1-.79,1.38,120.22,120.22,0,0,0-11,8.31,24.39,24.39,0,0,0-4.75,5.34c-.23.5-.82.39-1.23.21a3.29,3.29,0,0,1-1.55-1.35c-.31-1.08.53-2,1.09-2.77A54.09,54.09,0,0,1,70,80.57C72.37,78.89,74.67,77.11,77.12,75.57Z"/><circle class="cls-3" cx="74.65" cy="64.54" r="1.46"/><circle class="cls-4" cx="82.05" cy="83.65" r="1.59"/><path class="cls-3" d="M53.23,89.86c-.59-.63-1.38-1.47-1.93-2.14-3.33-5.08,5-12.31,18.62-21.62A1.58,1.58,0,0,1,72.19,68c-.17.45-.17.45-2.41,2-11,7.62-20.57,15.33-16.29,20.08l-.26-.26Z"/><circle class="cls-4" cx="94.08" cy="58.8" r="1.87"/><path class="cls-4" d="M90.56,53.25a26.29,26.29,0,0,0-15.65-5.12A26.56,26.56,0,0,0,48.38,74.66q0,.56,0,1.11a1.44,1.44,0,0,0,1,1.32,1.49,1.49,0,0,0,.47.07A1.45,1.45,0,0,0,51,76.62c.06-.07.12-.13.17-.2a1.52,1.52,0,0,0,.37-1c0-.24,0-.48,0-.73A23.42,23.42,0,0,1,74.91,51.27a23.13,23.13,0,0,1,13.75,4.49,1.43,1.43,0,0,0,1.88-.14l.16-.15a1.47,1.47,0,0,0-.14-2.22Z"/><path class="cls-4" d="M78.88,84.88a1.9,1.9,0,0,0-2.22-.21c-8.56,5.52-12.19,8.89-12.54,11.62a3.94,3.94,0,0,0,1.23,3.25l.1.11a6.09,6.09,0,0,0,2.12,1.18l.12,0,.28-.1-.19-.22a2.36,2.36,0,0,1-.6-2c.33-2.37,3.67-5.64,9.93-9.72,2.22-1.45,2.22-1.45,2.39-1.93A2,2,0,0,0,78.88,84.88Z"/><path class="cls-5" d="M114.68,98.74a.39.39,0,0,1,.4-.4h1.33v-6.5h-1.33a.41.41,0,0,1-.4-.42.4.4,0,0,1,.4-.41h3.46a.42.42,0,0,1,0,.83h-1.33v6.5h1.33a.39.39,0,0,1,.4.4.4.4,0,0,1-.4.42h-3.46A.41.41,0,0,1,114.68,98.74Z"/><path class="cls-5" d="M125.39,98.74V91.42a.4.4,0,0,1,.4-.41.37.37,0,0,1,.34.21l3.28,6V91.42a.4.4,0,0,1,.39-.41.42.42,0,0,1,.4.41v7.32a.41.41,0,0,1-.4.42.34.34,0,0,1-.34-.21l-3.27-6v5.74a.4.4,0,1,1-.8,0Z"/><path class="cls-5" d="M138.38,98.74V91.85h-2.26a.42.42,0,0,1,0-.84h5.34a.42.42,0,0,1,0,.84h-2.27v6.89a.41.41,0,1,1-.81,0Z"/><path class="cls-5" d="M147.54,98.74V91.43a.4.4,0,0,1,.38-.42h4a.41.41,0,0,1,.39.43.4.4,0,0,1-.39.41h-3.64v2.82h2.82a.41.41,0,0,1,.4.42.4.4,0,0,1-.4.41h-2.82v2.84H152a.41.41,0,0,1,0,.82h-4A.39.39,0,0,1,147.54,98.74Z"/><path class="cls-5" d="M158.55,98.74V91.43a.42.42,0,0,1,.39-.42h1.78a2.47,2.47,0,0,1,2.42,2.5,2.54,2.54,0,0,1-1.61,2.37l1.82,2.63a.42.42,0,0,1,.07.23.41.41,0,0,1-.39.42.37.37,0,0,1-.34-.17l-2.06-3h-1.28v2.72a.4.4,0,0,1-.41.42A.41.41,0,0,1,158.55,98.74Zm2.17-3.56a1.67,1.67,0,0,0,0-3.33h-1.37v3.33Z"/><path class="cls-5" d="M169.35,98.74V91.42a.4.4,0,0,1,.39-.41.37.37,0,0,1,.35.21l3.27,6V91.42a.4.4,0,0,1,.4-.41.42.42,0,0,1,.4.41v7.32a.41.41,0,0,1-.4.42.32.32,0,0,1-.34-.21l-3.28-6v5.74a.4.4,0,1,1-.79,0Z"/><path class="cls-5" d="M180.5,98.74V91.43a.41.41,0,0,1,.39-.42h4a.41.41,0,0,1,.38.43.4.4,0,0,1-.38.41h-3.64v2.82h2.82a.41.41,0,0,1,.4.42.4.4,0,0,1-.4.41h-2.82v2.84h3.64a.39.39,0,0,1,.38.41.4.4,0,0,1-.38.41h-4A.4.4,0,0,1,180.5,98.74Z"/><path class="cls-5" d="M193.32,98.74V91.85h-2.26a.42.42,0,0,1,0-.84h5.34a.42.42,0,0,1,0,.84h-2.26v6.89a.41.41,0,1,1-.82,0Z"/><path class="cls-5" d="M213.46,96.71a.4.4,0,1,1,.8,0,1.58,1.58,0,0,0,1.55,1.61,1.2,1.2,0,0,0,1.31-1.09,1,1,0,0,0-.35-.83l-2.2-1.77A2.06,2.06,0,0,1,215.81,91a2.4,2.4,0,0,1,1.76.82,1.56,1.56,0,0,1,.39.75.44.44,0,0,1-.4.43.45.45,0,0,1-.36-.26,1.54,1.54,0,0,0-1.39-.9,1.19,1.19,0,0,0-1.16,1.22,1.12,1.12,0,0,0,.43.91l2.19,1.77a1.85,1.85,0,0,1,.64,1.5,2,2,0,0,1-2.1,1.91A2.41,2.41,0,0,1,213.46,96.71Z"/><path class="cls-5" d="M224.57,98.74a.39.39,0,0,1,.39-.4h1.34v-6.5H225a.4.4,0,0,1-.39-.42A.39.39,0,0,1,225,91h3.47a.42.42,0,0,1,0,.83h-1.34v6.5h1.34a.39.39,0,0,1,.4.4.4.4,0,0,1-.4.42H225A.4.4,0,0,1,224.57,98.74Z"/><path class="cls-5" d="M235.45,98.74V91.43a.4.4,0,0,1,.38-.42h4a.41.41,0,0,1,.39.43.4.4,0,0,1-.39.41h-3.64v2.82h2.82a.41.41,0,0,1,.4.42.4.4,0,0,1-.4.41h-2.82v2.84h3.64a.41.41,0,0,1,0,.82h-4A.39.39,0,0,1,235.45,98.74Z"/><path class="cls-5" d="M246,98.74V91.42a.41.41,0,0,1,.39-.41.39.39,0,0,1,.37.23l1.89,4,1.9-4a.39.39,0,0,1,.37-.23.41.41,0,0,1,.39.41v7.32a.4.4,0,0,1-.39.42.4.4,0,0,1-.41-.42V93.23L249,96.38a.38.38,0,0,1-.37.23.38.38,0,0,1-.36-.23l-1.49-3.15v5.51a.4.4,0,1,1-.8,0Z"/><path class="cls-5" d="M257.49,98.74V91.43a.43.43,0,0,1,.4-.42h1.76a2.51,2.51,0,0,1,0,5H258.3v2.72a.41.41,0,0,1-.41.42A.42.42,0,0,1,257.49,98.74Zm2.16-3.56a1.67,1.67,0,0,0,0-3.33H258.3v3.33Z"/><path class="cls-5" d="M268.44,98.74V91.43a.42.42,0,0,1,.39-.42h1.78a2.48,2.48,0,0,1,2.42,2.5,2.53,2.53,0,0,1-1.62,2.37l1.82,2.63a.36.36,0,0,1,.08.23.41.41,0,0,1-.4.42.37.37,0,0,1-.33-.17l-2.06-3h-1.28v2.72a.4.4,0,1,1-.8,0Zm2.17-3.56a1.67,1.67,0,0,0,0-3.33h-1.37v3.33Z"/><path class="cls-5" d="M279.4,98.74V91.43a.41.41,0,0,1,.39-.42h4a.41.41,0,0,1,.38.43.4.4,0,0,1-.38.41h-3.64v2.82H283a.41.41,0,0,1,.4.42.4.4,0,0,1-.4.41h-2.82v2.84h3.64a.39.39,0,0,1,.38.41.4.4,0,0,1-.38.41h-4A.4.4,0,0,1,279.4,98.74Z"/><rect class="cls-6" x="115.77" y="52.53" width="3.83" height="23.3"/><path class="cls-6" d="M124.3,75.83V72h11.93c1.06,0,1.6-.77,1.6-2.32V67.82a2,2,0,0,0-2.29-2.2h-5.25a6.47,6.47,0,0,1-4-1.07A4.53,4.53,0,0,1,125,62.89a4.64,4.64,0,0,1-.52-2.09V57.87A5.4,5.4,0,0,1,125.81,54a5,5,0,0,1,3.78-1.42H141.7v3.88H129.94a1.59,1.59,0,0,0-1.2.47,1.68,1.68,0,0,0-.48,1.25v1.68a1.73,1.73,0,0,0,.63,1.36,2.23,2.23,0,0,0,1.53.53h5.77a5.37,5.37,0,0,1,3.87,1.6,5.07,5.07,0,0,1,1.64,3.79v3.66a4.91,4.91,0,0,1-1.51,3.53,4.71,4.71,0,0,1-3.48,1.55Z"/><path class="cls-6" d="M146.44,83.41V58.47A5.87,5.87,0,0,1,148,54.06a6.13,6.13,0,0,1,4.46-1.53h7.32a6.41,6.41,0,0,1,4.5,1.49,5.41,5.41,0,0,1,1.62,4.2V69.37A6.52,6.52,0,0,1,164.18,74a5.6,5.6,0,0,1-4.26,1.85h-9.6v7.58Zm3.88-14.13a3,3,0,0,0,.6,1.9,1.86,1.86,0,0,0,1.55.77h7.36a2.1,2.1,0,0,0,1.6-.64,2.37,2.37,0,0,0,.6-1.68v-11c0-1.46-.67-2.19-2-2.19h-6.94c-1.84,0-2.75.79-2.75,2.37Z"/><path class="cls-2" d="M197.86,44.78v24.5a6.69,6.69,0,0,1-1.7,4.63,5.25,5.25,0,0,1-4.07,1.92h-7.62a5.62,5.62,0,0,1-2.24-.52,6.5,6.5,0,0,1-2.07-1.37,5.71,5.71,0,0,1-1.46-4.22V58.43a5.76,5.76,0,0,1,1.61-4.37A6.56,6.56,0,0,1,185,52.53h9V44.78ZM182.57,69.5a2.59,2.59,0,0,0,.61,1.72,1.82,1.82,0,0,0,1.46.73h6.81a2.34,2.34,0,0,0,1.85-.77,2.94,2.94,0,0,0,.69-2V59a2.23,2.23,0,0,0-2.5-2.54h-6.38c-1.69,0-2.54.87-2.54,2.62Z"/><rect class="cls-2" x="203.33" y="52.53" width="3.83" height="23.3"/><path class="cls-2" d="M212.68,83.41V79.53h12.53a11.64,11.64,0,0,0,1.38,0,2.08,2.08,0,0,0,.69-.47,3,3,0,0,0,.86-2.16v-1h-9.26A5.74,5.74,0,0,1,214.55,74a6.28,6.28,0,0,1-1.74-4.5v-11a6.07,6.07,0,0,1,1.57-4.29,5.15,5.15,0,0,1,3.94-1.7h8.23a5.21,5.21,0,0,1,4,1.53A5.81,5.81,0,0,1,232,58.22V77.68a5.3,5.3,0,0,1-1.76,4.18,7.09,7.09,0,0,1-4.83,1.55Zm4-14.26a2.94,2.94,0,0,0,.69,2,2.29,2.29,0,0,0,1.81.77H226c1.43,0,2.15-.93,2.15-2.8V59c0-1.75-.7-2.62-2.11-2.62h-6.55a2.82,2.82,0,0,0-2,.71,2.47,2.47,0,0,0-.76,1.91Z"/><rect class="cls-2" x="237.44" y="52.53" width="3.83" height="23.3"/><path class="cls-2" d="M257.65,52.53h13.78a8.14,8.14,0,0,1,2.37.26,4,4,0,0,1,1.57,1.08,6.07,6.07,0,0,1,1.25,1.87,5.48,5.48,0,0,1,.45,2.17v12A5.8,5.8,0,0,1,275.35,74a5.32,5.32,0,0,1-4,1.81h-7.8a5.58,5.58,0,0,1-4.13-1.89,6.13,6.13,0,0,1-1.81-4.35v-2.8a8.3,8.3,0,0,1,1.53-5.37,5.35,5.35,0,0,1,4.37-1.87h9.61V58c0-1.09-.78-1.63-2.33-1.63H257.65Zm4.78,19a4.61,4.61,0,0,0,2.28.38H270a4.21,4.21,0,0,0,2.19-.34,2.63,2.63,0,0,0,.72-.93,2.46,2.46,0,0,0,.28-1V65.92a2.28,2.28,0,0,0-.84-1.85,3.54,3.54,0,0,0-2.31-.69h-5.38a3.46,3.46,0,0,0-2.24.69,2.24,2.24,0,0,0-.86,1.85v3.75a2.52,2.52,0,0,0,.25,1A2.75,2.75,0,0,0,262.43,71.57Z"/><path class="cls-2" d="M281.5,75.83v-31h3.88V75.83Z"/><circle class="cls-4" cx="205.25" cy="48.1" r="2.17"/><circle class="cls-4" cx="239.36" cy="48.1" r="2.17"/><circle class="cls-4" cx="117.69" cy="48.1" r="2.17"/><path class="cls-4" d="M103,75.27v-.5c0-.14,0-.28,0-.42l0-.35,0-.53c0-.13,0-.26,0-.39l0-.31c0-.2,0-.4-.07-.6s0-.22,0-.33l0-.33c0-.21-.06-.42-.1-.63l-.06-.31,0-.2c0-.27-.11-.53-.17-.79a2.68,2.68,0,0,0-.07-.27l0-.15c-.08-.29-.15-.58-.23-.86a1.83,1.83,0,0,0-.08-.25l0-.15c-.09-.29-.18-.59-.28-.88l-.09-.25-.06-.14c-.1-.29-.2-.58-.32-.86,0-.09-.07-.18-.11-.27l-.07-.17c-.11-.26-.23-.53-.37-.84l0,0c-.11-.24-.23-.47-.35-.72l-.06-.12-.07-.15c-.17-.33-.35-.66-.53-1a1.44,1.44,0,0,0-1.49-.72,1.48,1.48,0,0,0-1.21,1.15l-.06.26A1.5,1.5,0,0,0,97,64.24l.34.65c.17.31.32.63.47,1l.31.72,0,.13.1.24c.1.26.2.51.29.77l0,.14a1.18,1.18,0,0,1,.07.2c.09.26.17.52.25.78l0,.12c0,.08,0,.15.07.22l.2.77,0,.14.06.22c.06.25.11.49.16.74l0,.13.06.27c0,.22.07.44.11.7l0,.16a2.54,2.54,0,0,1,0,.29c0,.17,0,.35.06.52l0,.28,0,.34c0,.16,0,.32,0,.48l0,.32c0,.11,0,.23,0,.34V76c0,.16,0,.31,0,.47v.28c0,.13,0,.25,0,.38s0,.33,0,.49l0,.3,0,.33c0,.19,0,.39-.08.58l0,.23c0,.1,0,.2,0,.29,0,.24-.09.47-.14.72l0,.15c0,.08,0,.16,0,.23-.06.26-.12.53-.19.79l-.07.29c-.08.3-.16.59-.25.88l-.06.19c-.1.32-.2.63-.32.94l0,.11c-.13.34-.26.68-.41,1a23.43,23.43,0,0,1-5,7.46c-.25.25-.51.49-.78.73l.11.18h0l-.17-.12c-.25.23-.5.44-.75.65l-.14.12c-.24.19-.48.38-.73.56l-.19.15-.72.51-.25.17-.73.46-.27.17-.77.42-.27.15-.26.13-.16.08c-.32.16-.65.31-1,.45s-.69.3-1,.43l-.73.27-1,.34-.76.21q-.51.14-1,.24l-.8.16c-.33.06-.65.11-1,.15l-.85.1-.94.07L77,99c-.31,0-.61,0-.92,0l-.89,0-.9-.07-.88-.1c-.49-.07-.93-.13-1.37-.22a1.45,1.45,0,0,0-1.66.91l-.07.21a1.41,1.41,0,0,0,.07,1.22,1.44,1.44,0,0,0,1,.73l.59.1.34,0,.16,0,.26,0,.21,0c.33.05.67.09,1,.12l1,.08c.34,0,.68,0,1,0h1l1,0L79,102l1-.11,1.11-.17.92-.18c.39-.09.77-.17,1.15-.27l.88-.25c.39-.12.78-.24,1.17-.38l.84-.31c.39-.15.78-.31,1.16-.48l.18-.08.24-.1.52-.25.19-.09.13-.07.16-.07.16-.09.22-.12.13-.07c.28-.15.56-.3.83-.46l.23-.15.12-.07.79-.49.18-.13.14-.09c.26-.18.52-.36.77-.55l.26-.2c.27-.2.54-.4.8-.62l.18-.15c.28-.23.55-.47.82-.71l.11-.1c.29-.27.57-.53.84-.8l0,0A26.4,26.4,0,0,0,101,85.87l-.18-.09h0l.18.07h0c.16-.36.31-.74.44-1.11l.06-.16c.12-.34.24-.69.35-1l.08-.27c.09-.31.19-.63.27-.94l.06-.24,0-.14c.07-.28.14-.56.2-.85l.06-.3,0-.26c0-.23.09-.46.13-.68s0-.27,0-.4l0-.26c0-.2.06-.4.08-.6s0-.29,0-.43l0-.36c0-.16,0-.32,0-.48s0-.3,0-.45l0-.36c0-.16,0-.32,0-.47a3.38,3.38,0,0,0,0-.45Z"/><polygon class="cls-2" points="250.66 52.53 250.66 44.78 246.79 44.78 246.79 52.53 245.1 52.53 245.1 56.41 246.79 56.41 246.79 75.83 250.66 75.83 250.66 56.41 254.63 56.41 254.63 52.53 250.66 52.53"/></svg>